<svg width="24" height="24" viewBox="0 0 24 24" fill="none" xmlns="http://www.w3.org/2000/svg">
<path d="M22.56 12.25C22.56 11.47 22.49 10.72 22.36 10H12V14.255H17.92C17.665 15.63 16.89 16.795 15.725 17.575V20.335H19.28C21.36 18.42 22.56 15.6 22.56 12.25Z" fill="#4285F4"/>
<path d="M12 22.9996C14.97 22.9996 17.46 22.0146 19.28 20.3346L15.725 17.5746C14.74 18.2346 13.48 18.6246 12 18.6246C9.13498 18.6246 6.70998 16.6896 5.84498 14.0896H2.16998V16.9396C3.97998 20.5346 7.69998 22.9996 12 22.9996Z" fill="#34A853"/>
<path d="M5.84494 14.09C5.62494 13.43 5.49994 12.725 5.49994 12C5.49994 11.275 5.62494 10.57 5.84494 9.91004V7.06004H2.16994C1.39994 8.59289 0.99926 10.2846 0.99994 12C0.99994 13.775 1.42494 15.455 2.16994 16.94L5.84494 14.09Z" fill="#FBBC05"/>
<path d="M12 5.375C13.615 5.375 15.065 5.93 16.205 7.02L19.36 3.865C17.455 2.09 14.965 1 12 1C7.69998 1 3.97998 3.465 2.16998 7.06L5.84498 9.91C6.70998 7.31 9.13498 5.375 12 5.375Z" fill="#EA4335"/>
</svg>
